<?xml version="1.0" ?>
<svg xmlns="http://www.w3.org/2000/svg" width="56" height="56" viewBox="0 0 120 120">
  <circle cx="60" cy="60" r="40" fill="#0066cc"/>
  <g transform="translate(60,60)" fill="white">
    <path d="M30.00,0.00 L36.00,0.00 L33.26,13.78 L27.72,11.48 Z"/>
    <path d="M21.21,21.21 L25.46,25.46 L13.78,33.26 L11.48,27.72 Z"/>
    <path d="M0.00,30.00 L0.00,36.00 L-13.78,33.26 L-11.48,27.72 Z"/>
    <path d="M-21.21,21.21 L-25.46,25.46 L-33.26,13.78 L-27.72,11.48 Z"/>
    <path d="M-30.00,0.00 L-36.00,0.00 L-33.26,-13.78 L-27.72,-11.48 Z"/>
    <path d="M-21.21,-21.21 L-25.46,-25.46 L-13.78,-33.26 L-11.48,-27.72 Z"/>
    <path d="M-0.00,-30.00 L-0.00,-36.00 L13.78,-33.26 L11.48,-27.72 Z"/>
    <path d="M21.21,-21.21 L25.46,-25.46 L33.26,-13.78 L27.72,-11.48 Z"/>
    <circle cx="0" cy="0" r="10"/>
  </g>
</svg>
